<svg width="129" height="28" viewBox="0 0 129 28" fill="none" xmlns="http://www.w3.org/2000/svg">
<path d="M14.0275 0C6.30351 0 0 6.29114 0 14C0 21.7089 6.30351 28 14.0275 28C21.8403 28 28.0551 21.7089 28.0551 14C28.0551 6.29114 21.8403 0 14.0275 0ZM14.0275 21.5316C9.85478 21.5316 6.48107 18.1646 6.48107 14C6.48107 9.83544 9.85478 6.46835 14.0275 6.46835C18.2003 6.46835 21.574 9.83544 21.574 14C21.574 18.1646 18.2003 21.5316 14.0275 21.5316ZM78.7495 0C67.8293 0 59.0399 6.29114 59.0399 14C59.0399 21.7089 67.8293 28 78.7495 28C89.6696 28 98.459 21.7089 98.459 14C98.459 6.29114 89.5809 0 78.7495 0ZM78.7495 21.5316C71.203 21.5316 65.6098 17.5443 65.6098 14.0886C65.6098 10.6329 71.203 6.64557 78.7495 6.64557C86.2959 6.64557 91.8892 10.6329 91.8892 14.0886C91.8892 17.5443 86.2072 21.5316 78.7495 21.5316ZM125.715 0.620253C123.939 0.620253 122.43 2.12658 122.43 3.89873V14.8861L104.674 0.797468C104.052 0.265823 103.164 0.708861 103.164 1.50633V24.1013C103.164 25.8734 104.674 27.3797 106.449 27.3797C108.225 27.3797 109.734 25.8734 109.734 24.1013V13.2025L127.491 27.2911C128.112 27.8228 129 27.3797 129 26.5823V3.89873C129 2.12658 127.491 0.620253 125.715 0.620253ZM53.8906 20.9114H42.7041L56.9092 2.12658C57.3531 1.50633 56.9092 0.620253 56.1989 0.620253H35.6015C33.8259 0.620253 32.3166 2.12658 32.3166 3.89873C32.3166 5.67089 33.8259 7.17722 35.6015 7.17722H44.9236L30.6297 25.962C30.1858 26.5823 30.6297 27.4684 31.4288 27.4684H53.8906C55.6662 27.4684 57.1755 25.962 57.1755 24.1899C57.1755 22.4177 55.6662 20.9114 53.8906 20.9114Z" fill="white"/>
</svg>
